<?xml version="1.0" encoding="UTF-8"?>
<svg version="1.1" xmlns="http://www.w3.org/2000/svg" width="1864" height="4265">
<path d="M0 0 C23 0 23 0 28.4375 4.875 C31 9.20963855 31 9.20963855 31 12 C31.66 12 32.32 12 33 12 C34.69140625 14.30078125 34.69140625 14.30078125 36.5625 17.3125 C37.49255859 18.79169922 37.49255859 18.79169922 38.44140625 20.30078125 C40 23 40 23 41 26 C41.66 26 42.32 26 43 26 C44.3046875 27.84375 44.3046875 27.84375 45.875 30.5 C50.37542085 37.80723723 55.56843419 44.5570557 60.7824707 51.36523438 C61.90584305 52.8735763 62.95677117 54.43515675 64 56 C64.01458252 54.95658447 64.02916504 53.91316895 64.04418945 52.83813477 C64.10260393 48.92960051 64.17983007 45.02161665 64.26245117 41.11352539 C64.29549913 39.42904663 64.3235923 37.7444625 64.34643555 36.05981445 C64.58610743 18.84933356 64.58610743 18.84933356 68 11 C68.556875 9.63875 68.556875 9.63875 69.125 8.25 C74.55925433 1.72889481 80.73180451 0.91868839 89 0 C89 32.34 89 64.68 89 98 C81.08 98 73.16 98 65 98 C57.31255059 89.47391974 57.31255059 89.47391974 55.44140625 85.64453125 C53.29687784 81.48701457 50.85450436 77.80569376 48.0625 74.0625 C47.25443562 72.93638174 46.44849193 71.80873913 45.64453125 70.6796875 C43.6713454 67.928633 41.68698959 65.18584525 39.69921875 62.4453125 C39.12743896 61.65632568 38.55565918 60.86733887 37.96655273 60.05444336 C36.85958777 58.5280566 35.75113687 57.00274583 34.64086914 55.47875977 C30.96038268 50.40450684 27.44184277 45.2388907 24 40 C23.98018066 41.27641357 23.96036133 42.55282715 23.93994141 43.86791992 C23.86377337 48.61111926 23.775073 53.35401632 23.68261719 58.09692383 C23.64437375 60.14829534 23.60951281 62.19973284 23.578125 64.2512207 C23.53237398 67.20287638 23.47439578 70.15407953 23.4140625 73.10546875 C23.40251129 74.02023483 23.39096008 74.93500092 23.37905884 75.87748718 C23.27606865 80.3377767 23.09747644 83.94855867 21 88 C20.34 88 19.68 88 19 88 C18.773125 88.5775 18.54625 89.155 18.3125 89.75 C15.77066528 94.10743095 11.78685583 96.63232691 7 98 C4.69 98 2.38 98 0 98 C0 65.66 0 33.32 0 0 Z " fill="#D8D8D8" transform="translate(1124,2083)"/>
<path d="M0 0 C0.95132813 -0.020625 1.90265625 -0.04125 2.8828125 -0.0625 C15.02783247 -0.12904805 25.67297798 4.43728024 34.8046875 12.5078125 C40.40202534 18.36899791 44.1417813 24.79027513 47.25 32.25 C47.62511719 33.13816406 48.00023437 34.02632812 48.38671875 34.94140625 C51.32299636 46.1949227 50.84142599 60.98747589 45.25 71.25 C44.59644531 72.53197266 44.59644531 72.53197266 43.9296875 73.83984375 C37.63076755 85.28460268 27.55723497 93.96600623 14.9140625 97.71875 C-2.00811658 101.09326078 -17.24835395 98.91776403 -31.75 89.25 C-31.75 88.59 -31.75 87.93 -31.75 87.25 C-32.41 87.25 -33.07 87.25 -33.75 87.25 C-33.75 86.59 -33.75 85.93 -33.75 85.25 C-34.41 85.25 -35.07 85.25 -35.75 85.25 C-35.75 84.59 -35.75 83.93 -35.75 83.25 C-36.41 83.25 -37.07 83.25 -37.75 83.25 C-41.75 77.83823529 -41.75 77.83823529 -41.75 75.25 C-42.41 75.25 -43.07 75.25 -43.75 75.25 C-44.56332743 73.14615302 -45.37563417 71.04191143 -46.1875 68.9375 C-46.63996094 67.76574219 -47.09242188 66.59398438 -47.55859375 65.38671875 C-51.77830523 54.27711769 -51.14076834 40.57166155 -46.8203125 29.5625 C-45.83612384 27.43607778 -44.82094929 25.33400943 -43.75 23.25 C-43.09 23.25 -42.43 23.25 -41.75 23.25 C-41.46125 22.486875 -41.1725 21.72375 -40.875 20.9375 C-39.75 18.25 -39.75 18.25 -37.75 15.25 C-37.09 15.25 -36.43 15.25 -35.75 15.25 C-35.75 14.59 -35.75 13.93 -35.75 13.25 C-35.09 13.25 -34.43 13.25 -33.75 13.25 C-33.75 12.59 -33.75 11.93 -33.75 11.25 C-22.88295116 3.0948006 -13.39508827 0.07144047 0 0 Z M-13.75 27.25 C-20.43899575 33.66597551 -23.09678363 40.56622816 -23.7421875 49.7421875 C-23.76737276 57.82665601 -21.05663651 64.16505681 -15.75 70.25 C-10.48679812 74.99365835 -4.77845543 76.61015377 2.25 76.25 C8.76701341 75.13188495 13.92117834 72.25344322 18.25 67.25 C23.34212716 59.49572733 24.36693151 50.83465753 22.5625 41.8125 C20.91246286 37.33382778 18.68297038 33.34519061 16.25 29.25 C15.59 29.25 14.93 29.25 14.25 29.25 C14.25 28.59 14.25 27.93 14.25 27.25 C4.79615984 21.97058277 -4.61850899 20.28123055 -13.75 27.25 Z " fill="#D9D9D9" transform="translate(833.75,2083.75)"/>
<path d="M0 0 C23.1 0 46.2 0 70 0 C70.12032643 25.34431097 70.12032643 25.34431097 70.14648438 36.17382812 C70.16439578 43.55418392 70.18555218 50.93442771 70.22631836 58.31469727 C70.2589896 64.26693001 70.2768695 70.21904259 70.28463173 76.17135811 C70.29016127 78.43867445 70.30095908 80.70598445 70.31719017 82.97324944 C70.33906731 86.15670702 70.34196258 89.33967232 70.34057617 92.52319336 C70.351362 93.45396194 70.36214783 94.38473053 70.3732605 95.34370422 C70.33113701 104.322334 68.30773609 111.58158149 62.10546875 118.20703125 C56.60939511 122.88736112 49.58783681 126.13294326 42.3449707 126.11352539 C41.40422195 126.11344986 40.46347321 126.11337433 39.49421692 126.11329651 C38.48163315 126.10813522 37.46904938 126.10297394 36.42578125 126.09765625 C35.38681198 126.0962413 34.34784271 126.09482635 33.27738953 126.09336853 C29.95573052 126.08776656 26.63413867 126.07521372 23.3125 126.0625 C21.06184993 126.05748525 18.81119881 126.0529223 16.56054688 126.04882812 C11.04033867 126.03779648 5.52018072 126.02053051 0 126 C0 120.72 0 115.44 0 110 C2.97 110 5.94 110 9 110 C9.20753906 109.1234375 9.41507813 108.246875 9.62890625 107.34375 C12.45061945 95.72631993 15.74927453 84.26432156 19.16845703 72.80957031 C19.72868465 70.91670494 20.27630189 69.020067 20.81201172 67.12011719 C21.06869629 66.22196289 21.32538086 65.32380859 21.58984375 64.3984375 C21.81406006 63.59841309 22.03827637 62.79838867 22.26928711 61.97412109 C23 60 23 60 25 58 C28.04759306 63.1732252 28.1815982 69.15427286 29 75 C34.94 75 40.88 75 47 75 C46.75765625 73.75992188 46.5153125 72.51984375 46.265625 71.2421875 C43.41358204 56.29300411 41.32981198 41.29181239 39.41723633 26.19946289 C38.9733014 22.79526908 38.49172484 19.39759088 38 16 C36.10333474 16.08772455 34.20761007 16.19591301 32.3125 16.3125 C31.25675781 16.37050781 30.20101562 16.42851562 29.11328125 16.48828125 C25.75705899 17.03993133 23.81867667 18.15872785 21 20 C20.34 20 19.68 20 19 20 C19 20.66 19 21.32 19 22 C18.34 22 17.68 22 17 22 C16.731875 22.845625 16.46375 23.69125 16.1875 24.5625 C15 28 15 28 13.64453125 30.98046875 C11.44017884 36.07908539 10.01913453 41.41644472 8.5 46.75 C8.20480469 47.7709375 7.90960937 48.791875 7.60546875 49.84375 C5.67481051 56.54577067 3.81736271 63.26643818 2 70 C1.34 70 0.68 70 0 70 C0 46.9 0 23.8 0 0 Z M33 87 C33 87.66 33 88.32 33 89 C32.34 89 31.68 89 31 89 C28.56922785 93.31486461 28.15607261 97.13053897 29 102 C30.95119265 105.54966971 33.63984363 107.75989575 37 110 C40.94416446 110.79494788 44.53996554 110.84687498 48.07421875 108.796875 C51.20264815 106.19968833 53.48425603 103.82651052 55 100 C54.68559529 94.23591371 53.31857873 90.40445202 49.3125 86.25 C43.31115379 83.00602908 38.64090464 83.4744346 33 87 Z " fill="#D8D8D8" transform="translate(708,2070)"/>
<path d="M0 0 C6.29427578 15.57941446 12.37328714 31.20110348 17.90869141 47.06713867 C19.53965347 51.73772486 21.24933017 56.37286086 23 61 C25.42039882 55.80062476 27.53893737 50.60080674 29.4375 45.1875 C31.33807681 39.76969721 33.43152582 34.4880903 35.6796875 29.20703125 C37.49244906 24.80384415 39.14152883 20.34413681 40.76928711 15.86962891 C42.6413104 10.77923304 44.78193679 5.99064222 47 1 C55.58 1 64.16 1 73 1 C70.38878324 9.05746885 67.72394249 16.92156797 64.3828125 24.70703125 C62.67464869 28.77477728 61.08627774 32.88351555 59.5 37 C57.51928196 42.13157027 55.51037488 47.24266342 53.375 52.3125 C50.2790196 59.66798285 47.30459609 67.07782206 44.78515625 74.65234375 C41.71967798 83.82919084 38.31817336 92.07596307 29.6328125 97.16796875 C23.68049194 99.04904335 17.16242622 98.33654027 11 98 C10.55269531 96.76765625 10.10539063 95.5353125 9.64453125 94.265625 C9.03399616 92.59369814 8.4233109 90.92182611 7.8125 89.25 C7.52052734 88.44433594 7.22855469 87.63867188 6.92773438 86.80859375 C5.24914133 82.2240493 3.47424366 77.70071821 1.57421875 73.203125 C-1.63046335 65.58704822 -4.42404211 57.82895933 -7.25 50.06640625 C-9.67390289 43.45369617 -12.22618049 36.92424362 -14.984375 30.44335938 C-15.72702783 28.65670806 -16.38814576 26.83556273 -17 25 C-46.7 24.505 -46.7 24.505 -77 24 C-75.86542056 12.65420561 -75.86542056 12.65420561 -73.375 9.125 C-72.90835938 8.42632813 -72.44171875 7.72765625 -71.9609375 7.0078125 C-66.91868213 1.84502512 -62.27432088 0.54571037 -55.27331543 0.39434814 C-54.30655884 0.39311951 -53.33980225 0.39189087 -52.34375 0.390625 C-51.32381958 0.37408875 -50.30388916 0.35755249 -49.25305176 0.34051514 C-46.0019746 0.29218513 -42.75135793 0.27076157 -39.5 0.25 C-37.34633048 0.22180722 -35.19268298 0.19187523 -33.0390625 0.16015625 C-22.02654802 0.00938667 -11.01345374 -0.04000044 0 0 Z " fill="#D8D8D8" transform="translate(966,2083)"/>
<path d="M0 0 C1.60294922 0.01353516 1.60294922 0.01353516 3.23828125 0.02734375 C4.04652344 0.03894531 4.85476563 0.05054687 5.6875 0.0625 C8.73550987 6.3068742 11.30829829 12.62313245 13.5625 19.1875 C15.84084031 25.8155335 18.36957375 32.28944743 21.0793457 38.75195312 C23.34913628 44.18393056 25.44843687 49.66415484 27.48828125 55.18603516 C29.1452644 59.65790656 30.89138279 64.0820182 32.6875 68.5 C34.91191819 74.02289583 37.00581932 79.57735791 39 85.1875 C39.25458984 85.8983374 39.50917969 86.6091748 39.77148438 87.34155273 C41.03340308 90.93518431 41.93638324 94.30691622 42.6875 98.0625 C34.4375 98.0625 26.1875 98.0625 17.6875 98.0625 C15.30572315 92.70350208 13.12883921 87.73048947 11.25 82.25 C9.76681084 77.92446226 8.13946786 73.7168744 6.359375 69.50390625 C3.49074572 62.68111957 0.92122316 55.76086009 -1.625 48.8125 C-2.07939453 47.57886719 -2.53378906 46.34523438 -3.00195312 45.07421875 C-4.10773843 42.07113865 -5.2112137 39.06723223 -6.3125 36.0625 C-6.48265625 36.66835937 -6.6528125 37.27421875 -6.828125 37.8984375 C-8.36089576 43.19791089 -10.12771436 48.29990566 -12.22363281 53.40136719 C-14.29503137 58.46375381 -16.22687031 63.58142675 -18.1875 68.6875 C-18.62368652 69.8223584 -19.05987305 70.9572168 -19.50927734 72.12646484 C-22.82140007 80.75564204 -26.08569821 89.40108466 -29.3125 98.0625 C-37.8925 98.0625 -46.4725 98.0625 -55.3125 98.0625 C-54.50621259 93.22477552 -53.40776686 89.3699426 -51.546875 84.93359375 C-51.1339621 83.92716576 -51.1339621 83.92716576 -50.71270752 82.90040588 C-49.83514663 80.76447421 -48.94922011 78.63214341 -48.0625 76.5 C-46.9090827 73.70800803 -45.75893564 70.91467554 -44.609375 68.12109375 C-44.32785583 67.43816757 -44.04633667 66.75524139 -43.75628662 66.05162048 C-40.16590872 57.3158219 -36.82225523 48.48871715 -33.5625 39.625 C-31.01715294 32.78416393 -28.31251368 26.01090975 -25.5625 19.25 C-25.17352539 18.28843994 -24.78455078 17.32687988 -24.38378906 16.33618164 C-24.01479492 15.43504639 -23.64580078 14.53391113 -23.265625 13.60546875 C-22.93723633 12.80133545 -22.60884766 11.99720215 -22.27050781 11.16870117 C-21.3125 9.0625 -21.3125 9.0625 -19.3125 6.0625 C-18.6525 6.0625 -17.9925 6.0625 -17.3125 6.0625 C-17.3125 5.4025 -17.3125 4.7425 -17.3125 4.0625 C-11.32671236 0.86079964 -6.75758416 -0.07425917 0 0 Z " fill="#D8D8D8" transform="translate(1073.3125,2082.9375)"/>
<path d="M0 0 C0.25652344 0.96292969 0.51304687 1.92585938 0.77734375 2.91796875 C3.52968217 13.09680091 6.55391377 23.18317872 9.6875 33.25 C9.88536102 33.88610199 10.08322205 34.52220398 10.28707886 35.17758179 C12.50228056 42.53586916 12.50228056 42.53586916 15.11206055 49.75537109 C16.34844824 54.27326839 16.24697126 58.5494026 16.1953125 63.2109375 C16.1924826 64.17907379 16.18965271 65.14721008 16.18673706 66.14468384 C16.17558696 69.22158428 16.1504918 72.29818828 16.125 75.375 C16.11496352 77.4674437 16.10583884 79.55989198 16.09765625 81.65234375 C16.07566453 86.76834251 16.04117025 91.88412108 16 97 C12.37 97 8.74 97 5 97 C1.82294786 89.10082477 -0.19758554 80.96763222 -2.30664062 72.73046875 C-4.08952727 65.92452732 -6.19589367 59.45556228 -9 53 C-9.10546143 53.81678223 -9.21092285 54.63356445 -9.31958008 55.47509766 C-9.71915684 58.52905225 -10.12844783 61.58150805 -10.54418945 64.63330078 C-10.80837648 66.59439068 -11.0615039 68.55696022 -11.31445312 70.51953125 C-11.48525391 71.76347656 -11.65605469 73.00742188 -11.83203125 74.2890625 C-11.98389893 75.43068848 -12.1357666 76.57231445 -12.29223633 77.74853516 C-13.85008627 84.90529458 -17.46414698 89.48768338 -23.375 93.6875 C-28.52439417 96.26219708 -33.25977116 97.28001116 -39 97 C-39.3550546 90.07136307 -38.01474752 83.49183173 -36.8125 76.6875 C-36.34986926 74.00567182 -35.88925661 71.32363313 -35.43359375 68.640625 C-35.31522156 67.9440831 -35.19684937 67.2475412 -35.07489014 66.52989197 C-34.20203435 61.33653305 -33.41105482 56.13417699 -32.66015625 50.921875 C-32.5517189 50.17005447 -32.44328156 49.41823395 -32.33155823 48.64363098 C-31.80856472 45.00079961 -31.29428855 41.35690343 -30.78833008 37.71166992 C-27.0038915 10.83293449 -27.0038915 10.83293449 -17.7578125 3.2890625 C-12.58828459 -0.50192464 -6.16455388 -1.79406054 0 0 Z " fill="#D9D9D9" transform="translate(690,2085)"/>
<path d="M0 0 C20.13 0 40.26 0 61 0 C61 7.66191754 59.64844755 12.89310877 54.5078125 18.6796875 C48.27467557 24.13771932 42.55740464 24.28027661 34.66796875 24.1953125 C33.18034782 24.19106766 33.18034782 24.19106766 31.66267395 24.18673706 C28.50415841 24.17556804 25.34592943 24.15046927 22.1875 24.125 C20.04232181 24.11496597 17.89713917 24.10584086 15.75195312 24.09765625 C10.50110363 24.07734349 5.25087151 24.03818816 0 24 C0 16.08 0 8.16 0 0 Z " fill="#D8D8D8" transform="translate(889,2120)"/>
<path d="M0 0 C20.13 0 40.26 0 61 0 C59.95384605 10.4615395 58.60757698 14.32017631 51 21 C46.10839929 23.75887474 40.89677028 23.25267017 35.44921875 23.1953125 C34.43527542 23.1924826 33.42133209 23.18965271 32.37666321 23.18673706 C29.14682073 23.17556625 25.91725829 23.15046711 22.6875 23.125 C20.49414464 23.1149662 18.30078492 23.10584105 16.10742188 23.09765625 C10.73808727 23.07734095 5.36935611 23.03818586 0 23 C0 15.41 0 7.82 0 0 Z " fill="#D9D9D9" transform="translate(889,2158)"/>
</svg>
